<svg width="33" height="40" viewBox="0 0 33 40" fill="none" xmlns="http://www.w3.org/2000/svg">
<path fill-rule="evenodd" clip-rule="evenodd" d="M4.5 0C3.39543 0 2.5 0.895431 2.5 2V38C2.5 39.1046 3.39543 40 4.5 40H30.5C31.6046 40 32.5 39.1046 32.5 38V12L20.5 0H4.5Z" fill="#C4C4C4"/>
<path d="M32.5 12L22.5 12C21.3954 12 20.5 11.1046 20.5 10L20.5 0L32.5 12Z" fill="#C4C4C4"/>
<rect x="0.5" y="20" width="28" height="12" rx="2" fill="#FF001F"/>
<path d="M9.08057 27.1138H7.41504V26.2393H9.08057C9.37061 26.2393 9.60498 26.1924 9.78369 26.0986C9.9624 26.0049 10.0928 25.876 10.1748 25.7119C10.2598 25.5449 10.3022 25.3545 10.3022 25.1406C10.3022 24.9385 10.2598 24.7495 10.1748 24.5737C10.0928 24.395 9.9624 24.2515 9.78369 24.1431C9.60498 24.0347 9.37061 23.9805 9.08057 23.9805H7.75342V29.5H6.65039V23.1016H9.08057C9.57568 23.1016 9.99609 23.1895 10.3418 23.3652C10.6904 23.5381 10.9556 23.7783 11.1372 24.0859C11.3188 24.3906 11.4097 24.7393 11.4097 25.1318C11.4097 25.5449 11.3188 25.8994 11.1372 26.1953C10.9556 26.4912 10.6904 26.7183 10.3418 26.8765C9.99609 27.0347 9.57568 27.1138 9.08057 27.1138ZM14.2573 29.5H12.8906L12.8994 28.6255H14.2573C14.6528 28.6255 14.9839 28.5391 15.2505 28.3662C15.52 28.1934 15.7222 27.9458 15.8569 27.6235C15.9946 27.3013 16.0635 26.9175 16.0635 26.4722V26.125C16.0635 25.7793 16.0239 25.4731 15.9448 25.2065C15.8687 24.9399 15.7544 24.7158 15.6021 24.5342C15.4526 24.3525 15.2681 24.2148 15.0483 24.1211C14.8315 24.0273 14.5811 23.9805 14.2969 23.9805H12.8643V23.1016H14.2969C14.7217 23.1016 15.1099 23.1733 15.4614 23.3169C15.813 23.4575 16.1162 23.6611 16.3711 23.9277C16.6289 24.1943 16.8267 24.5137 16.9644 24.8857C17.1021 25.2578 17.1709 25.6738 17.1709 26.1338V26.4722C17.1709 26.9321 17.1021 27.3481 16.9644 27.7202C16.8267 28.0923 16.6289 28.4116 16.3711 28.6782C16.1133 28.9419 15.8057 29.1455 15.4482 29.2891C15.0938 29.4297 14.6968 29.5 14.2573 29.5ZM13.5015 23.1016V29.5H12.3984V23.1016H13.5015ZM19.3813 23.1016V29.5H18.2783V23.1016H19.3813ZM21.9917 25.9009V26.7754H19.1001V25.9009H21.9917ZM22.3564 23.1016V23.9805H19.1001V23.1016H22.3564Z" fill="white"/>
</svg>
